<svg xmlns="http://www.w3.org/2000/svg" width="1440" height="889" style="cursor: move; touch-action: none; -webkit-tap-highlight-color: rgba(0, 0, 0, 0);"><g transform="translate(-258.63572452615506,-242.15454162340245) scale(1.526788261766875)"><path class="link" marker-end="" d="M572,389, 703,350" style="stroke-width: 0.52; stroke-opacity: 1; stroke: rgb(255, 218, 218); opacity: 1;"></path><path class="link" marker-end="" d="M572,389, 703,390" style="stroke-width: 0.52; stroke-opacity: 1; stroke: rgb(255, 84, 84); opacity: 1;"></path><path class="link" marker-end="" d="M572,389, 703,430" style="stroke-width: 0.52; stroke-opacity: 1; stroke: rgb(122, 122, 255); opacity: 1;"></path><path class="link" marker-end="" d="M572,389, 703,470" style="stroke-width: 0.52; stroke-opacity: 1; stroke: rgb(255, 44, 44); opacity: 1;"></path><path class="link" marker-end="" d="M572,389, 703,510" style="stroke-width: 0.52; stroke-opacity: 1; stroke: rgb(255, 19, 19); opacity: 1;"></path><path class="link" marker-end="" d="M572,431, 703,350" style="stroke-width: 0.52; stroke-opacity: 1; stroke: rgb(159, 159, 255); opacity: 1;"></path><path class="link" marker-end="" d="M572,431, 703,390" style="stroke-width: 0.52; stroke-opacity: 1; stroke: rgb(249, 249, 255); opacity: 1;"></path><path class="link" marker-end="" d="M572,431, 703,430" style="stroke-width: 0.52; stroke-opacity: 1; stroke: rgb(255, 18, 18); opacity: 1;"></path><path class="link" marker-end="" d="M572,431, 703,470" style="stroke-width: 0.52; stroke-opacity: 1; stroke: rgb(255, 174, 174); opacity: 1;"></path><path class="link" marker-end="" d="M572,431, 703,510" style="stroke-width: 0.52; stroke-opacity: 1; stroke: rgb(255, 139, 139); opacity: 1;"></path><path class="link" marker-end="" d="M703,310, 834,390" style="stroke-width: 0.52; stroke-opacity: 1; stroke: rgb(202, 202, 255); opacity: 1;"></path><path class="link" marker-end="" d="M703,310, 834,430" style="stroke-width: 0.52; stroke-opacity: 1; stroke: rgb(255, 244, 244); opacity: 1;"></path><path class="link" marker-end="" d="M703,350, 834,390" style="stroke-width: 0.52; stroke-opacity: 1; stroke: rgb(163, 163, 255); opacity: 1;"></path><path class="link" marker-end="" d="M703,350, 834,430" style="stroke-width: 0.52; stroke-opacity: 1; stroke: rgb(130, 130, 255); opacity: 1;"></path><path class="link" marker-end="" d="M703,390, 834,390" style="stroke-width: 0.52; stroke-opacity: 1; stroke: rgb(255, 130, 130); opacity: 1;"></path><path class="link" marker-end="" d="M703,390, 834,430" style="stroke-width: 0.52; stroke-opacity: 1; stroke: rgb(35, 35, 255); opacity: 1;"></path><path class="link" marker-end="" d="M703,430, 834,390" style="stroke-width: 0.52; stroke-opacity: 1; stroke: rgb(65, 65, 255); opacity: 1;"></path><path class="link" marker-end="" d="M703,430, 834,430" style="stroke-width: 0.52; stroke-opacity: 1; stroke: rgb(105, 105, 255); opacity: 1;"></path><path class="link" marker-end="" d="M703,470, 834,390" style="stroke-width: 0.52; stroke-opacity: 1; stroke: rgb(255, 43, 43); opacity: 1;"></path><path class="link" marker-end="" d="M703,470, 834,430" style="stroke-width: 0.52; stroke-opacity: 1; stroke: rgb(202, 202, 255); opacity: 1;"></path><path class="link" marker-end="" d="M703,510, 834,390" style="stroke-width: 0.52; stroke-opacity: 1; stroke: rgb(228, 228, 255); opacity: 1;"></path><path class="link" marker-end="" d="M703,510, 834,430" style="stroke-width: 0.52; stroke-opacity: 1; stroke: rgb(255, 122, 122); opacity: 1;"></path><path class="link" marker-end="" d="M834,350, 965,377" style="stroke-width: 0.52; stroke-opacity: 1; stroke: rgb(255, 168, 168); opacity: 1;"></path><path class="link" marker-end="" d="M834,390, 965,377" style="stroke-width: 0.52; stroke-opacity: 1; stroke: rgb(11, 11, 255); opacity: 1;"></path><path class="link" marker-end="" d="M834,430, 965,377" style="stroke-width: 0.52; stroke-opacity: 1; stroke: rgb(149, 149, 255); opacity: 1;"></path><path class="link" marker-end="" d="M834,350, 965,443" style="stroke-width: 0.52; stroke-opacity: 1; stroke: rgb(194, 194, 255); opacity: 1;"></path><path class="link" marker-end="" d="M834,390, 965,443" style="stroke-width: 0.52; stroke-opacity: 1; stroke: rgb(115, 115, 255); opacity: 1;"></path><path class="link" marker-end="" d="M834,430, 965,443" style="stroke-width: 0.52; stroke-opacity: 1; stroke: rgb(255, 247, 247); opacity: 1;"></path><path class="link" marker-end="" d="M703,310, 834,470" style="stroke-width: 0.52; stroke-opacity: 1; stroke: rgb(44, 44, 255); opacity: 1;"></path><path class="link" marker-end="" d="M703,350, 834,470" style="stroke-width: 0.52; stroke-opacity: 1; stroke: rgb(208, 208, 255); opacity: 1;"></path><path class="link" marker-end="" d="M703,390, 834,470" style="stroke-width: 0.52; stroke-opacity: 1; stroke: rgb(255, 125, 125); opacity: 1;"></path><path class="link" marker-end="" d="M703,430, 834,470" style="stroke-width: 0.52; stroke-opacity: 1; stroke: rgb(255, 144, 144); opacity: 1;"></path><path class="link" marker-end="" d="M703,470, 834,470" style="stroke-width: 0.52; stroke-opacity: 1; stroke: rgb(245, 245, 255); opacity: 1;"></path><path class="link" marker-end="" d="M703,510, 834,470" style="stroke-width: 0.52; stroke-opacity: 1; stroke: rgb(28, 28, 255); opacity: 1;"></path><path class="link" marker-end="" d="M834,470, 965,377" style="stroke-width: 0.52; stroke-opacity: 1; stroke: rgb(255, 178, 178); opacity: 1;"></path><path class="link" marker-end="" d="M834,470, 965,443" style="stroke-width: 0.52; stroke-opacity: 1; stroke: rgb(179, 179, 255); opacity: 1;"></path><path class="link" marker-end="" d="M572,389, 703,310" style="stroke-width: 0.52; stroke-opacity: 1; stroke: rgb(90, 90, 255);"></path><path class="link" marker-end="" d="M572,431, 703,310" style="stroke-width: 0.52; stroke-opacity: 1; stroke: rgb(255, 148, 148);"></path><path class="link" marker-end="" d="M703,310, 834,350" style="stroke-width: 0.52; stroke-opacity: 1; stroke: rgb(53, 53, 255);"></path><path class="link" marker-end="" d="M703,350, 834,350" style="stroke-width: 0.52; stroke-opacity: 1; stroke: rgb(65, 65, 255);"></path><path class="link" marker-end="" d="M703,390, 834,350" style="stroke-width: 0.52; stroke-opacity: 1; stroke: rgb(255, 214, 214);"></path><path class="link" marker-end="" d="M703,430, 834,350" style="stroke-width: 0.52; stroke-opacity: 1; stroke: rgb(255, 45, 45);"></path><path class="link" marker-end="" d="M703,470, 834,350" style="stroke-width: 0.52; stroke-opacity: 1; stroke: rgb(87, 87, 255);"></path><path class="link" marker-end="" d="M703,510, 834,350" style="stroke-width: 0.52; stroke-opacity: 1; stroke: rgb(110, 110, 255);"></path><circle r="16.5" class="node" id="0_0" cx="572" cy="389" style="fill: rgb(255, 255, 255); stroke: rgb(51, 51, 51); opacity: 1;"></circle><circle r="16.5" class="node" id="0_1" cx="572" cy="431" style="fill: rgb(255, 255, 255); stroke: rgb(51, 51, 51); opacity: 1;"></circle><circle r="16.5" class="node" id="1_0" cx="703" cy="310" style="fill: rgb(255, 255, 255); stroke: rgb(51, 51, 51); opacity: 1;"></circle><circle r="16.5" class="node" id="1_1" cx="703" cy="350" style="fill: rgb(255, 255, 255); stroke: rgb(51, 51, 51); opacity: 1;"></circle><circle r="16.5" class="node" id="1_2" cx="703" cy="390" style="fill: rgb(255, 255, 255); stroke: rgb(51, 51, 51); opacity: 1;"></circle><circle r="16.5" class="node" id="1_3" cx="703" cy="430" style="fill: rgb(255, 255, 255); stroke: rgb(51, 51, 51); opacity: 1;"></circle><circle r="16.5" class="node" id="1_4" cx="703" cy="470" style="fill: rgb(255, 255, 255); stroke: rgb(51, 51, 51); opacity: 1;"></circle><circle r="16.5" class="node" id="1_5" cx="703" cy="510" style="fill: rgb(255, 255, 255); stroke: rgb(51, 51, 51); opacity: 1;"></circle><circle r="16.5" class="node" id="2_0" cx="834" cy="350" style="fill: rgb(255, 255, 255); stroke: rgb(51, 51, 51); opacity: 1;"></circle><circle r="16.5" class="node" id="2_1" cx="834" cy="390" style="fill: rgb(255, 255, 255); stroke: rgb(51, 51, 51); opacity: 1;"></circle><circle r="16.5" class="node" id="2_2" cx="834" cy="430" style="fill: rgb(255, 255, 255); stroke: rgb(51, 51, 51); opacity: 1;"></circle><circle r="16.5" class="node" id="2_3" cx="834" cy="470" style="fill: rgb(255, 255, 255); stroke: rgb(51, 51, 51); opacity: 1;"></circle><circle r="16.5" class="node" id="3_0" cx="965" cy="377" style="fill: rgb(255, 255, 255); stroke: rgb(51, 51, 51); opacity: 1;"></circle><text class="text" dy=".35em" x="537" y="550" style="font-size: 12px;">Input Layer ∈ ℝ²</text><text class="text" dy=".35em" x="668" y="550" style="font-size: 12px;">Hidden Layer ∈ ℝ⁶</text><text class="text" dy=".35em" x="799" y="550" style="font-size: 12px;">Hidden Layer ∈ ℝ⁴</text><text class="text" dy=".35em" x="930" y="550" style="font-size: 12px;">Output Layer ∈ ℝ²</text><circle r="16.5" class="node" id="3_1" cx="965" cy="443" style="fill: rgb(255, 255, 255); stroke: rgb(51, 51, 51); opacity: 1;"></circle></g><defs><marker id="arrow" viewBox="0 -5 10 10" markerWidth="7" markerHeight="7" orient="auto" refX="58.199999999999996"><path d="M0,-5L10,0L0,5" style="stroke: rgb(80, 80, 80); fill: none;"></path></marker></defs></svg>